#!OML:ASF I:\Actors\actors\Patient Classification 2\Patient 1\Session 1\actor1.ASF
:FULLY-SPECIFIED
:DEGREES
561
root -1.09398 18.6721 4.66546 -1.17461 2.64396 -1.99131
lowerback 7.78837 -0.544463 3.6764
upperback 1.49425 -0.379039 1.3274
thorax -2.83525 -0.214461 -0.655525
lowerneck -12.1365 -2.56015 -0.887179
upperneck 26.3809 -3.63193 0.728493
head 10.4686 -1.66615 -0.0421693
rclavicle 4.29872e-015 -1.19271e-015
rhumerus -54.3366 9.26521 -89.3532
rradius 62.5528
rwrist -2.97372
rhand -9.4138 -47.0931
rfingers 7.12502
rthumb 16.5481 -76.4075
lclavicle 4.29872e-015 -1.19271e-015
lhumerus -43.108 -15.1733 97.8674
lradius 50.7432
lwrist 4.85898
lhand -7.58006 -20.652
lfingers 7.12502
lthumb 18.3129 8.50599
rfemur 10.2932 -11.6075 15.645
rtibia -1.59028e-015
rfoot -10.8474 -3.33278
rtoes -5.59846
lfemur -3.29167 -7.28683 -11.362
ltibia 22.4796
lfoot -19.6555 8.92473
ltoes -56.7412
562
root -1.08232 18.6696 4.70147 -1.31697 3.00499 -1.90944
lowerback 7.41206 -0.475442 3.62036
upperback 1.33428 -0.305976 1.31348
thorax -2.78812 -0.178706 -0.647521
lowerneck -12.3281 -2.62641 -1.04583
upperneck 26.3505 -3.70672 0.808006
head 10.501 -1.705 0.000924065
rclavicle 1.36664e-015 -1.59028e-015
rhumerus -54.9017 6.99918 -88.066
rradius 60.8042
rwrist -1.90717
rhand -9.35324 -46.5833
rfingers 7.12502
rthumb 16.6064 -75.8928
lclavicle 1.36664e-015 -1.59028e-015
lhumerus -44.1537 -14.2856 97.371
lradius 51.2702
lwrist 6.02388
lhand -7.8466 -20.5341
lfingers 7.12502
lthumb 18.0564 8.64781
rfemur 10.6702 -11.9529 15.4048
rtibia 1.59028e-015
rfoot -10.9622 -3.17163
rtoes -5.41567
lfemur -2.99725 -7.56377 -11.5284
ltibia 22.3374
lfoot -19.704 8.85164
ltoes -56.8741
563
root -1.07044 18.6675 4.73397 -1.40193 3.30393 -1.86291
lowerback 7.09942 -0.398896 3.62281
upperback 1.12214 -0.214131 1.2723
thorax -2.82984 -0.136034 -0.700993
lowerneck -12.4713 -2.69587 -1.0909
upperneck 26.3432 -3.78461 0.781039
head 10.5277 -1.74684 -0.0130126
rclavicle -1.49089e-016 1.94809e-014
rhumerus -55.6306 4.75753 -86.7588
rradius 59.3559
rwrist -0.868247
rhand -8.96329 -46.3264
rfingers 7.12502
rthumb 16.9818 -75.604
lclavicle -1.49089e-016 1.94809e-014
lhumerus -45.1677 -13.4834 96.8372
lradius 51.761
lwrist 7.08829
lhand -7.91086 -20.3891
lfingers 7.12502
lthumb 17.9946 8.79843
rfemur 10.9581 -12.2407 15.2271
rtibia 3.18055e-015
rfoot -11.0585 -3.0296
rtoes -5.38719
lfemur -2.80104 -7.60392 -11.621
ltibia 22.2306
lfoot -19.6788 8.65052
ltoes -57.0129
564
root -1.05922 18.666 4.76434 -1.4483 3.52799 -1.89577
lowerback 6.83318 -0.317514 3.72633
upperback 0.858969 -0.104584 1.22617
thorax -2.94936 -0.0874733 -0.816939
lowerneck -12.5539 -2.77334 -1.19624
upperneck 26.3924 -3.8868 0.846725
head 10.5672 -1.79493 0.0135377
rclavicle -3.10601e-015 9.93923e-015
rhumerus -56.4821 2.62819 -85.4536
rradius 58.0882
rwrist -0.375041
rhand -8.48886 -46.5718
rfingers 7.12502
rthumb 17.4384 -75.8096
lclavicle -3.10601e-015 9.93923e-015
lhumerus -46.1701 -12.7839 96.3299
lradius 52.0827
lwrist 7.85679
lhand -8.34691 -20.3934
lfingers 7.12502
lthumb 17.575 8.83219
rfemur 11.175 -12.4601 15.1643
rtibia -4.77083e-015
rfoot -11.1544 -2.91008
rtoes -5.45218
lfemur -2.66093 -7.59233 -11.6105
ltibia 22.1552
lfoot -19.6781 8.42395
ltoes -57.0444
565
root -1.04901 18.6654 4.79401 -1.44875 3.71542 -1.91067
lowerback 6.53349 -0.237583 3.78505
upperback 0.616485 -0.00294164 1.18017
thorax -3.02835 -0.0418345 -0.90664
lowerneck -12.5595 -2.83784 -1.28209
upperneck 26.2716 -3.97168 0.909828
head 10.5283 -1.8354 0.0404979
rclavicle 5.49143e-015 1.19271e-015
rhumerus -57.2428 0.644023 -84.105
rradius 56.7655
rwrist -0.271278
rhand -8.41919 -46.7918
rfingers 7.12502
rthumb 17.5055 -76.0237
lclavicle 5.49143e-015 1.19271e-015
lhumerus -47.1105 -12.269 95.8799
lradius 52.3323
lwrist 8.41437
lhand -9.15077 -20.5424
lfingers 7.12502
lthumb 16.8013 8.75066
rfemur 11.3305 -12.6458 15.0977
rtibia -2.22639e-014
rfoot -11.2722 -2.79711
rtoes -5.36027
lfemur -2.56397 -7.70096 -11.6286
ltibia 22.1003
lfoot -19.7679 8.30391
ltoes -56.9958
